<svg id="529804bf-96e7-4397-b27e-4772ee3dc51f" data-name="Layer 1" xmlns="http://www.w3.org/2000/svg" viewBox="0 0 400 100"><defs><style>.a367f208-bb2c-470a-8ed3-7f5f329be9d6{fill:#e4e4f2;}.\37 116f551-a37b-4525-8110-a9befa6555c3{fill:#9a005d;stroke:#9a005d;stroke-miterlimit:10;stroke-width:0.25px;}</style></defs><title>ap-logo</title><path class="a367f208-bb2c-470a-8ed3-7f5f329be9d6" d="M113.23,40.46h4.88l6.83,30.22h-3.25l-1.58-7h-8.88l-1.58,7h-3.25Zm2.42,3.63-3.81,16.83h7.63Z"/><path class="a367f208-bb2c-470a-8ed3-7f5f329be9d6" d="M132.38,70.68h-3.25V40.46h3.25l10.09,23.25V40.46h3.25V70.68h-3.25L132.38,47.44Z"/><path class="a367f208-bb2c-470a-8ed3-7f5f329be9d6" d="M160.18,70.68H152.7V40.46h7.48a7.91,7.91,0,0,1,5.51,1.72A6.16,6.16,0,0,1,167.58,47v17.2A6.18,6.18,0,0,1,165.72,69,8,8,0,0,1,160.18,70.68Zm4.14-6.51V47a3.61,3.61,0,0,0-1.09-2.6,4.07,4.07,0,0,0-3-1.12H156V67.89h4.23a4.12,4.12,0,0,0,3-1.09A3.59,3.59,0,0,0,164.32,64.17Z"/><path class="a367f208-bb2c-470a-8ed3-7f5f329be9d6" d="M177.11,70.68h-3.25V40.46h7a7.91,7.91,0,0,1,5.51,1.72A6.16,6.16,0,0,1,188.26,47v6.51q0,4.74-4.09,6l5.72,11.16h-3.58L180.87,60h-3.77Zm7.9-17.2V47a3.53,3.53,0,0,0-1.07-2.74,4.39,4.39,0,0,0-3.07-1h-3.77V57.2h3.77Q185,57.2,185,53.48Z"/><path class="a367f208-bb2c-470a-8ed3-7f5f329be9d6" d="M207.79,70.68H194.07V40.46h13.25v2.79h-10V53.95h8.14v2.79h-8.14V67.89h10.46Z"/><path class="a367f208-bb2c-470a-8ed3-7f5f329be9d6" d="M218.95,70.68h-4.56l-4.51-30.22h3.25L216.95,66l5-25.52h3.49l5,25.52,3.81-25.52h3.25l-4.51,30.22h-4.56l-4.74-24.13Z"/><path class="a367f208-bb2c-470a-8ed3-7f5f329be9d6" d="M258.6,70.68h-3.25V40.46h7a7.91,7.91,0,0,1,5.51,1.72A6.16,6.16,0,0,1,269.76,47v7.9a6.19,6.19,0,0,1-1.86,4.81,8,8,0,0,1-5.53,1.7H258.6Zm7.9-15.81V47a3.53,3.53,0,0,0-1.07-2.74,4.39,4.39,0,0,0-3.07-1H258.6V58.6h3.77Q266.51,58.6,266.51,54.88Z"/><path class="a367f208-bb2c-470a-8ed3-7f5f329be9d6" d="M288.59,70.68H274.88V40.46h13.25v2.79h-10V53.95h8.14v2.79h-8.14V67.89h10.46Z"/><path class="a367f208-bb2c-470a-8ed3-7f5f329be9d6" d="M305.33,40.46v2.79h-6V70.68H296V43.25h-6V40.46Z"/><path class="a367f208-bb2c-470a-8ed3-7f5f329be9d6" d="M312.3,70.68H309V40.46h3.25V53.95h9.16V40.46h3.25V70.68h-3.25V56.74H312.3Z"/><path class="a367f208-bb2c-470a-8ed3-7f5f329be9d6" d="M346.8,46.28v18.6a6,6,0,0,1-2,4.81q-2,1.7-5.9,1.7T333,69.68a6,6,0,0,1-2-4.81V46.28a6,6,0,0,1,2-4.81q2-1.7,5.9-1.7t5.93,1.7A6,6,0,0,1,346.8,46.28Zm-3.25,18.6V46.28q0-3.72-4.65-3.72t-4.65,3.72v18.6q0,3.72,4.65,3.72T343.54,64.87Z"/><path class="a367f208-bb2c-470a-8ed3-7f5f329be9d6" d="M365.16,64.87V40.46h3.25V64.87a6,6,0,0,1-2,4.81q-2,1.7-5.9,1.7t-5.93-1.7a6,6,0,0,1-2-4.81V40.46h3.25V64.87q0,3.72,4.65,3.72T365.16,64.87Z"/><path class="a367f208-bb2c-470a-8ed3-7f5f329be9d6" d="M382.41,70.68h-7.48V40.46h7.48a7.91,7.91,0,0,1,5.51,1.72A6.16,6.16,0,0,1,389.8,47v17.2A6.18,6.18,0,0,1,387.94,69,8,8,0,0,1,382.41,70.68Zm4.14-6.51V47a3.61,3.61,0,0,0-1.09-2.6,4.07,4.07,0,0,0-3-1.12h-4.23V67.89h4.23a4.12,4.12,0,0,0,3-1.09A3.59,3.59,0,0,0,386.54,64.17Z"/><path class="7116f551-a37b-4525-8110-a9befa6555c3" d="M27,82l-7.09-12.6a2,2,0,0,0-3.53,0L8.86,82A2,2,0,0,0,10.62,85H25.19A2,2,0,0,0,27,82Z"/><path class="7116f551-a37b-4525-8110-a9befa6555c3" d="M24.53,66.39,31.62,79a2,2,0,0,0,3.53,0l7.48-12.6a2,2,0,0,0-1.75-3.08H26.3A2,2,0,0,0,24.53,66.39Z"/><path class="7116f551-a37b-4525-8110-a9befa6555c3" d="M55.63,66.39,62.72,79a2,2,0,0,0,3.53,0l7.48-12.6A2,2,0,0,0,72,63.35H57.41A2,2,0,0,0,55.63,66.39Z"/><path class="7116f551-a37b-4525-8110-a9befa6555c3" d="M89.17,82l-7.09-12.6a2,2,0,0,0-3.53,0L71.06,82A2,2,0,0,0,72.82,85H87.39A2,2,0,0,0,89.17,82Z"/><path class="7116f551-a37b-4525-8110-a9befa6555c3" d="M24.53,55.3l7.09-12.6a2,2,0,0,1,3.53,0l7.48,12.6a2,2,0,0,1-1.75,3.08H26.3A2,2,0,0,1,24.53,55.3Z"/><path class="7116f551-a37b-4525-8110-a9befa6555c3" d="M58.07,39.69,51,52.29a2,2,0,0,1-3.53,0L40,39.73a2,2,0,0,1,1.75-3.08H56.29A2,2,0,0,1,58.07,39.69Z"/><path class="7116f551-a37b-4525-8110-a9befa6555c3" d="M55.63,55.3l7.09-12.6a2,2,0,0,1,3.53,0l7.48,12.6A2,2,0,0,1,72,58.34H57.41A2,2,0,0,1,55.63,55.3Z"/><path class="7116f551-a37b-4525-8110-a9befa6555c3" d="M58.07,28.61,51,16a2,2,0,0,0-3.53,0L40,28.57a2,2,0,0,0,1.75,3.08H56.29A2,2,0,0,0,58.07,28.61Z"/></svg>