<?xml version="1.0" encoding="utf-8"?>
<!-- Generator: Adobe Illustrator 21.1.0, SVG Export Plug-In . SVG Version: 6.00 Build 0)  -->
<svg version="1.1" id="Layer_1" xmlns="http://www.w3.org/2000/svg" xmlns:xlink="http://www.w3.org/1999/xlink" x="0px" y="0px"
	 viewBox="0 0 400 90" style="enable-background:new 0 0 400 90;" xml:space="preserve">
<style type="text/css">
	.st0{fill:#CEDFE1;}
	.st1{fill:#FFFFFF;stroke:#000000;stroke-miterlimit:10;}
	.st2{fill:#9A005D;}
	.st3{fill:#FFFFFF;stroke:#000000;stroke-width:0.5;stroke-miterlimit:10;}
	.st4{fill:#D799BE;}
	.st5{fill:#DCD3A0;}
	.st6{fill:#9DC0C2;}
	.st7{fill:#A79211;}
	.st8{fill:#0A6167;}
	.st9{fill:#EBCCDF;}
	.st10{fill:#EDE9CF;}
	.st11{fill:#9A005D;stroke:#9A005D;stroke-width:0.25;stroke-miterlimit:10;}
</style>
<g>
	<g>
		<path d="M113.2,35.5h4.9l6.8,30.2h-3.3l-1.6-7h-8.9l-1.6,7h-3.3L113.2,35.5z M115.6,39.1l-3.8,16.8h7.6L115.6,39.1z"/>
		<path d="M132.4,65.7h-3.3V35.5h3.3l10.1,23.2V35.5h3.3v30.2h-3.3l-10.1-23.2V65.7z"/>
		<path d="M160.2,65.7h-7.5V35.5h7.5c2.4,0,4.3,0.6,5.5,1.7c1.3,1.1,1.9,2.7,1.9,4.8v17.2c0,2.1-0.6,3.7-1.9,4.8
			C164.5,65.1,162.6,65.7,160.2,65.7z M164.3,59.2V42c0-1-0.4-1.9-1.1-2.6c-0.7-0.7-1.7-1.1-3-1.1H156v24.6h4.2c1.3,0,2.3-0.4,3-1.1
			C164,61.1,164.3,60.2,164.3,59.2z"/>
		<path d="M177.1,65.7h-3.3V35.5h7c2.4,0,4.3,0.6,5.5,1.7c1.3,1.1,1.9,2.7,1.9,4.8v6.5c0,3.2-1.4,5.2-4.1,6l5.7,11.2h-3.6L180.9,55
			h-3.8V65.7z M185,48.5V42c0-1.2-0.4-2.1-1.1-2.7c-0.7-0.7-1.7-1-3.1-1h-3.8v13.9h3.8C183.6,52.2,185,51,185,48.5z"/>
		<path d="M207.8,65.7h-13.7V35.5h13.3v2.8h-10v10.7h8.1v2.8h-8.1v11.2h10.5V65.7z"/>
		<path d="M218.9,65.7h-4.6l-4.5-30.2h3.3l3.8,25.5l5-25.5h3.5l5,25.5l3.8-25.5h3.3l-4.5,30.2h-4.6l-4.7-24.1L218.9,65.7z"/>
		<path d="M258.6,65.7h-3.3V35.5h7c2.4,0,4.3,0.6,5.5,1.7c1.3,1.1,1.9,2.7,1.9,4.8v7.9c0,2.1-0.6,3.7-1.9,4.8
			c-1.2,1.1-3.1,1.7-5.5,1.7h-3.8V65.7z M266.5,49.9V42c0-1.2-0.4-2.1-1.1-2.7c-0.7-0.7-1.7-1-3.1-1h-3.8v15.3h3.8
			C265.1,53.6,266.5,52.4,266.5,49.9z"/>
		<path d="M288.6,65.7h-13.7V35.5h13.3v2.8h-10v10.7h8.1v2.8h-8.1v11.2h10.5V65.7z"/>
		<path d="M305.3,35.5v2.8h-6v27.4H296V38.3h-6v-2.8H305.3z"/>
		<path d="M312.3,65.7H309V35.5h3.3v13.5h9.2V35.5h3.3v30.2h-3.3V51.7h-9.2V65.7z"/>
		<path d="M346.8,41.3v18.6c0,2.1-0.7,3.7-2,4.8c-1.3,1.1-3.3,1.7-5.9,1.7c-2.6,0-4.6-0.6-5.9-1.7c-1.3-1.1-2-2.7-2-4.8V41.3
			c0-2.1,0.7-3.7,2-4.8c1.3-1.1,3.3-1.7,5.9-1.7s4.6,0.6,5.9,1.7C346.1,37.6,346.8,39.2,346.8,41.3z M343.5,59.9V41.3
			c0-2.5-1.6-3.7-4.6-3.7c-3.1,0-4.6,1.2-4.6,3.7v18.6c0,2.5,1.5,3.7,4.6,3.7C342,63.6,343.5,62.4,343.5,59.9z"/>
		<path d="M365.2,59.9V35.5h3.3v24.4c0,2.1-0.7,3.7-2,4.8c-1.3,1.1-3.3,1.7-5.9,1.7c-2.6,0-4.6-0.6-5.9-1.7c-1.3-1.1-2-2.7-2-4.8
			V35.5h3.3v24.4c0,2.5,1.5,3.7,4.6,3.7C363.6,63.6,365.2,62.4,365.2,59.9z"/>
		<path d="M382.4,65.7h-7.5V35.5h7.5c2.4,0,4.3,0.6,5.5,1.7c1.3,1.1,1.9,2.7,1.9,4.8v17.2c0,2.1-0.6,3.7-1.9,4.8
			C386.7,65.1,384.9,65.7,382.4,65.7z M386.5,59.2V42c0-1-0.4-1.9-1.1-2.6c-0.7-0.7-1.7-1.1-3-1.1h-4.2v24.6h4.2
			c1.3,0,2.3-0.4,3-1.1C386.2,61.1,386.5,60.2,386.5,59.2z"/>
	</g>
	<g>
		<path class="st11" d="M27,77l-7.1-12.6c-0.8-1.4-2.7-1.4-3.5,0L8.9,77C8.1,78.3,9,80,10.6,80h14.6C26.7,80,27.7,78.4,27,77z"/>
		<path class="st11" d="M24.5,61.4L31.6,74c0.8,1.4,2.7,1.4,3.5,0l7.5-12.6c0.8-1.4-0.2-3.1-1.8-3.1H26.3
			C24.7,58.3,23.8,60,24.5,61.4z"/>
		<path class="st11" d="M55.6,61.4L62.7,74c0.8,1.4,2.7,1.4,3.5,0l7.5-12.6c0.8-1.4-0.2-3.1-1.8-3.1H57.4
			C55.8,58.3,54.9,60,55.6,61.4z"/>
		<path class="st11" d="M89.2,77l-7.1-12.6c-0.8-1.4-2.7-1.4-3.5,0L71.1,77c-0.8,1.4,0.2,3.1,1.8,3.1h14.6C89,80,89.9,78.4,89.2,77z
			"/>
		<path class="st11" d="M24.5,50.3l7.1-12.6c0.8-1.4,2.7-1.4,3.5,0l7.5,12.6c0.8,1.4-0.2,3.1-1.8,3.1H26.3
			C24.7,53.3,23.8,51.7,24.5,50.3z"/>
		<path class="st11" d="M58.1,34.7L51,47.3c-0.8,1.4-2.7,1.4-3.5,0L40,34.7c-0.8-1.4,0.2-3.1,1.8-3.1h14.6
			C57.9,31.7,58.8,33.3,58.1,34.7z"/>
		<path class="st11" d="M55.6,50.3l7.1-12.6c0.8-1.4,2.7-1.4,3.5,0l7.5,12.6c0.8,1.4-0.2,3.1-1.8,3.1H57.4
			C55.8,53.3,54.9,51.7,55.6,50.3z"/>
		<path class="st11" d="M58.1,23.6L51,11c-0.8-1.4-2.7-1.4-3.5,0L40,23.6c-0.8,1.4,0.2,3.1,1.8,3.1h14.6
			C57.9,26.6,58.8,25,58.1,23.6z"/>
	</g>
</g>
</svg>
